<svg width="800" height="92" viewBox="0 0 146 16" fill="none" xmlns="http://www.w3.org/2000/svg">
<path d="M23.6446 4.7065C23.6446 7.17212 25.2825 8.38111 27.4265 9.19601C28.5604 9.63509 29.6324 9.96856 29.6324 11.4512C29.6324 12.2844 28.9808 13.0358 28.0779 13.0358C26.9635 13.0358 26.439 12.3699 26.0186 11.6815L23.6233 12.7023C24.2115 14.5809 25.8502 16 28.0148 16H28.2034C30.6618 16 32.6372 13.9766 32.6372 11.4512C32.6372 9.44611 31.9651 8.25671 30.3895 7.31583C29.9484 7.04667 28.8548 6.56445 28.2876 6.3371C27.405 5.96101 26.6486 5.33614 26.6486 4.5837C26.6486 3.81009 27.2797 3.0587 28.0569 3.0587C28.477 3.0587 29.1068 3.20586 29.4438 3.93527L32.1545 2.64292C31.6081 0.928949 29.78 0.0529099 28.2455 0.0529099C25.4511 0.0529099 23.6446 1.88942 23.6446 4.7065Z" fill="url(#paint0_radial)"/>
<path d="M42.6421 0.176632L36.3602 15.8336H39.5963L40.7719 13.0147C40.7941 12.952 40.8567 12.9118 40.9406 12.9118H46.6348C46.719 12.9118 46.7818 12.952 46.8026 13.0147L48.0425 15.8336H51.2583L44.933 0.176632H42.6421ZM41.9489 10.0719C41.9489 10.0304 41.9489 10.0102 41.9705 9.98695L43.7349 5.58452L43.7983 5.50115L43.8402 5.54297C43.8402 5.56255 43.8402 5.56255 43.8612 5.58452L45.6054 9.98695C45.6267 10.0102 45.6267 10.0304 45.6267 10.0502C45.6267 10.1137 45.6054 10.1336 45.5422 10.1336H42.0339C41.9705 10.1336 41.9489 10.1137 41.9489 10.0719Z" fill="url(#paint1_radial)"/>
<path d="M55.0029 0.176632V15.8336H58.0072V9.5926C58.0072 9.50896 58.0498 9.46688 58.1343 9.46688H63.6809V6.48147H58.1343C58.0498 6.48147 58.0072 6.43939 58.0072 6.35575V3.2875C58.0072 3.20492 58.0498 3.16363 58.1343 3.16363H63.6809V0.176632H55.0029Z" fill="url(#paint2_radial)"/>
<path d="M68.024 0.176632V15.8336H76.6804V12.8485H71.1551C71.0704 12.8485 71.0283 12.8072 71.0283 12.7207V9.5926C71.0283 9.50896 71.0704 9.46688 71.1551 9.46688H76.6804V6.48147H71.1551C71.0704 6.48147 71.0283 6.43939 71.0283 6.35575V3.2875C71.0283 3.20492 71.0704 3.16363 71.1551 3.16363H76.6804V0.176632H68.024Z" fill="url(#paint3_radial)"/>
<path d="M81.4011 7.99604C81.4011 12.4202 84.9944 15.9886 89.4483 15.9886C92.6635 15.9886 94.7429 14.6963 95.9833 13.2123V7.30447H89.112V10.1872H92.8522C92.9156 10.1872 92.9363 10.2089 92.9363 10.2494V12.0454C92.285 12.6084 91.1722 13.0244 89.6798 13.0244C86.6744 13.0244 84.4054 10.7501 84.4054 7.99604C84.4054 5.2385 86.6744 2.98436 89.4483 2.98436C90.7089 2.98436 92.285 3.63305 93.146 4.32091L94.9954 1.94105C94.6597 1.64859 92.5165 0 89.4483 0C84.9944 0 81.4011 3.56847 81.4011 7.99604Z" fill="url(#paint4_radial)"/>
<path d="M99.3323 7.99604C99.3323 12.4202 102.926 15.9886 107.38 15.9886C111.835 15.9886 115.428 12.4202 115.428 7.99604C115.428 3.56847 111.835 0 107.38 0C102.926 0 99.3323 3.56847 99.3323 7.99604ZM102.337 7.99604C102.337 5.2385 104.607 2.98436 107.38 2.98436C110.154 2.98436 112.422 5.2385 112.422 7.99604C112.422 10.7501 110.154 13.0043 107.38 13.0043C104.607 13.0043 102.337 10.7501 102.337 7.99604Z" fill="url(#paint5_radial)"/>
<path d="M119.896 0.158958V15.8358H128.175V12.8507H123.153C122.985 12.8507 122.9 12.767 122.9 12.6011V0.158958H119.896Z" fill="url(#paint6_radial)"/>
<path d="M132.491 0.176632V15.8336H137.659C142.051 15.8336 145.58 12.2633 145.58 8.00646C145.58 3.74748 142.051 0.176632 137.659 0.176632H132.491ZM135.495 12.7207V3.2875C135.495 3.20492 135.536 3.16363 135.622 3.16363H137.785C140.643 3.16363 142.576 5.14438 142.576 8.00646C142.576 10.8654 140.517 12.8485 137.659 12.8485H135.622C135.536 12.8485 135.495 12.8072 135.495 12.7207Z" fill="url(#paint7_radial)"/>
<path d="M13.1306 7.23025C13.1719 7.47851 13.1946 7.73338 13.1946 7.99355C13.1946 8.25901 13.1708 8.51891 13.128 8.77193H14.2794C13.8939 11.9257 11.1904 14.3691 7.91168 14.3691C6.35372 14.3691 4.92577 13.817 3.81459 12.8996L2.5614 13.8159C3.97097 15.0998 5.84914 15.8832 7.91168 15.8832C12.2856 15.8832 15.8312 12.3608 15.8312 8.01551C15.8312 7.75032 15.8176 7.48857 15.7918 7.23025H15.248V7.22787L13.1306 7.23025Z" fill="url(#paint8_radial)"/>
<path d="M0 8.00881C0 8.25521 0.011722 8.49844 0.0341002 8.73902H3.13109C3.1279 8.74802 3.1247 8.75675 3.1215 8.76522H3.30026C3.51579 10.0353 4.24921 11.13 5.27621 11.829C6.02882 12.3411 6.93833 12.6415 7.91925 12.6415C10.5069 12.6415 12.6046 10.5575 12.6046 7.98684C12.6046 7.72668 12.5822 7.47181 12.5409 7.22355H11.3482V7.22117H7.44078V8.73902V8.76522H10.9201C10.5892 10.1068 9.37144 11.1022 7.91925 11.1022C7.46449 11.1022 7.03317 11.004 6.64422 10.8285C5.78345 10.4405 5.13395 9.67249 4.9123 8.73902C4.85849 8.5122 4.82891 8.27559 4.82891 8.0321C4.82891 6.3364 6.21237 4.96173 7.91925 4.96173C8.58793 4.96173 9.20653 5.17346 9.71218 5.53235L11.0469 4.52159C10.2176 3.78212 9.12155 3.33193 7.91925 3.33193C5.5943 3.33193 3.66578 5.01493 3.29787 7.22117H1.5505C1.93226 4.06319 4.6379 1.61584 7.91925 1.61584C9.68287 1.61584 11.2797 2.32302 12.4394 3.46717L13.6324 2.56387C12.1911 1.07169 10.1651 0.141396 7.91925 0.141396C3.54536 0.141396 0 3.66382 0 8.00881H0Z" fill="url(#paint9_radial)"/>
<defs>
<radialGradient id="paint0_radial" cx="0" cy="0" r="1" gradientUnits="userSpaceOnUse" gradientTransform="translate(83.3707 7.61191) scale(59.066 58.6793)">
<stop stop-color="#FFEFC0"/>
<stop offset="0.33" stop-color="#DFAF10"/>
<stop offset="0.71" stop-color="#BD8C2B"/>
<stop offset="1" stop-color="#9D7C4F"/>
</radialGradient>
<radialGradient id="paint1_radial" cx="0" cy="0" r="1" gradientUnits="userSpaceOnUse" gradientTransform="translate(83.3978 7.61108) scale(59.0701 58.6835)">
<stop stop-color="#FFEFC0"/>
<stop offset="0.33" stop-color="#DFAF10"/>
<stop offset="0.71" stop-color="#BD8C2B"/>
<stop offset="1" stop-color="#9D7C4F"/>
</radialGradient>
<radialGradient id="paint2_radial" cx="0" cy="0" r="1" gradientUnits="userSpaceOnUse" gradientTransform="translate(83.4202 7.61108) scale(59.0693 58.6827)">
<stop stop-color="#FFEFC0"/>
<stop offset="0.33" stop-color="#DFAF10"/>
<stop offset="0.71" stop-color="#BD8C2B"/>
<stop offset="1" stop-color="#9D7C4F"/>
</radialGradient>
<radialGradient id="paint3_radial" cx="0" cy="0" r="1" gradientUnits="userSpaceOnUse" gradientTransform="translate(83.4107 7.61108) scale(59.0682 58.6817)">
<stop stop-color="#FFEFC0"/>
<stop offset="0.33" stop-color="#DFAF10"/>
<stop offset="0.71" stop-color="#BD8C2B"/>
<stop offset="1" stop-color="#9D7C4F"/>
</radialGradient>
<radialGradient id="paint4_radial" cx="0" cy="0" r="1" gradientUnits="userSpaceOnUse" gradientTransform="translate(75.4584 7.60048) scale(59.0691 58.6825)">
<stop stop-color="#FFEFC0"/>
<stop offset="0.33" stop-color="#DFAF10"/>
<stop offset="0.71" stop-color="#BD8C2B"/>
<stop offset="1" stop-color="#9D7C4F"/>
</radialGradient>
<radialGradient id="paint5_radial" cx="0" cy="0" r="1" gradientUnits="userSpaceOnUse" gradientTransform="translate(74.0773 7.60047) scale(59.0698 58.6833)">
<stop stop-color="#FFEFC0"/>
<stop offset="0.33" stop-color="#DFAF10"/>
<stop offset="0.71" stop-color="#BD8C2B"/>
<stop offset="1" stop-color="#9D7C4F"/>
</radialGradient>
<radialGradient id="paint6_radial" cx="0" cy="0" r="1" gradientUnits="userSpaceOnUse" gradientTransform="translate(74.0881 7.61331) scale(59.069 58.6825)">
<stop stop-color="#FFEFC0"/>
<stop offset="0.33" stop-color="#DFAF10"/>
<stop offset="0.71" stop-color="#BD8C2B"/>
<stop offset="1" stop-color="#9D7C4F"/>
</radialGradient>
<radialGradient id="paint7_radial" cx="0" cy="0" r="1" gradientUnits="userSpaceOnUse" gradientTransform="translate(74.0753 7.61108) scale(59.0669 58.6803)">
<stop stop-color="#FFEFC0"/>
<stop offset="0.33" stop-color="#DFAF10"/>
<stop offset="0.71" stop-color="#BD8C2B"/>
<stop offset="1" stop-color="#9D7C4F"/>
</radialGradient>
<radialGradient id="paint8_radial" cx="0" cy="0" r="1" gradientUnits="userSpaceOnUse" gradientTransform="translate(7.02989 7.9251) scale(7.41148 7.36297)">
<stop stop-color="#FFEFC0"/>
<stop offset="0.33" stop-color="#DFAF10"/>
<stop offset="0.71" stop-color="#BD8C2B"/>
<stop offset="1" stop-color="#9D7C4F"/>
</radialGradient>
<radialGradient id="paint9_radial" cx="0" cy="0" r="1" gradientUnits="userSpaceOnUse" gradientTransform="translate(7.03746 7.9184) scale(7.41145 7.36294)">
<stop stop-color="#FFEFC0"/>
<stop offset="0.33" stop-color="#DFAF10"/>
<stop offset="0.71" stop-color="#BD8C2B"/>
<stop offset="1" stop-color="#9D7C4F"/>
</radialGradient>
</defs>
</svg>
